<svg width="35" height="23" viewBox="0 0 35 23" fill="none" xmlns="http://www.w3.org/2000/svg">
<g clip-path="url(#clip0)">
<path d="M14 16.1H21V14.375H18.6667L18.6667 6.325H16.5885L13.8906 8.78672L15.2943 10.2242C15.8047 9.78099 16.1389 9.43958 16.2969 9.2H16.3333L16.3333 14.375H14V16.1ZM23.3333 11.5C23.3333 12.3385 23.2057 13.1891 22.9505 14.0516C22.6953 14.9141 22.3338 15.7167 21.8659 16.4594C21.398 17.2021 20.7813 17.807 20.0156 18.2742C19.25 18.7414 18.4115 18.975 17.5 18.975C16.5885 18.975 15.75 18.7414 14.9844 18.2742C14.2187 17.807 13.602 17.2021 13.1341 16.4594C12.6662 15.7167 12.3047 14.9141 12.0495 14.0516C11.7943 13.1891 11.6667 12.3385 11.6667 11.5C11.6667 10.6615 11.7943 9.81094 12.0495 8.94844C12.3047 8.08594 12.6662 7.28333 13.1341 6.54062C13.602 5.79792 14.2187 5.19297 14.9844 4.72578C15.75 4.25859 16.5885 4.025 17.5 4.025C18.4115 4.025 19.25 4.25859 20.0156 4.72578C20.7812 5.19297 21.398 5.79792 21.8659 6.54062C22.3338 7.28333 22.6953 8.08594 22.9505 8.94844C23.2057 9.81094 23.3333 10.6615 23.3333 11.5ZM32.6667 16.1V6.9C31.3785 6.9 30.2786 6.45078 29.3672 5.55234C28.4557 4.65391 28 3.56979 28 2.3L7 2.3C7 3.56979 6.54427 4.65391 5.63281 5.55234C4.72135 6.45078 3.62153 6.9 2.33333 6.9L2.33333 16.1C3.62153 16.1 4.72135 16.5492 5.63281 17.4477C6.54427 18.3461 7 19.4302 7 20.7L28 20.7C28 19.4302 28.4557 18.3461 29.3672 17.4477C30.2786 16.5492 31.3785 16.1 32.6667 16.1ZM35 1.15V21.85C35 22.1615 34.8845 22.431 34.6536 22.6586C34.4227 22.8862 34.1493 23 33.8333 23L1.16667 23C0.850694 23 0.577257 22.8862 0.346354 22.6586C0.115451 22.431 0 22.1615 0 21.85L0 1.15C0 0.838542 0.115451 0.56901 0.346354 0.341406C0.577257 0.113802 0.850694 0 1.16667 0L33.8333 0C34.1493 0 34.4227 0.113802 34.6536 0.341406C34.8845 0.56901 35 0.838542 35 1.15Z" fill="#B3A0B6"/>
</g>
<defs>
<clipPath id="clip0">
<rect width="35" height="23" fill="white"/>
</clipPath>
</defs>
</svg>
