<svg width="42" height="42" viewBox="0 0 42 42" fill="none" xmlns="http://www.w3.org/2000/svg">
<path d="M35 19.25V14H7V19.25H35ZM22.75 22.75V25.69C21.6475 27.3525 21 29.3475 21 31.5C21 33.4075 21.5075 35.21 22.4 36.75H7C6.07174 36.75 5.1815 36.3813 4.52513 35.7249C3.86875 35.0685 3.5 34.1783 3.5 33.25V5.25L6.4225 8.1725L9.3275 5.25L12.25 8.1725L15.1725 5.25L18.0775 8.1725L21 5.25L23.9225 8.1725L26.8275 5.25L29.75 8.1725L32.6725 5.25L35.5775 8.1725L38.5 5.25V23.625C36.5563 21.9399 34.0724 21.0084 31.5 21C29.3475 21 27.3525 21.6475 25.69 22.75H22.75ZM19.25 33.25V22.75H7V33.25H19.25Z" fill="#B3A0B6"/>
<path fill-rule="evenodd" clip-rule="evenodd" d="M35.2857 29H34.3C34.4357 28.7525 34.5357 28.4975 34.5572 28.3175C34.6 27.815 34.4786 27.4025 34.1857 27.11C33.9286 26.825 33.6072 26.75 33.2143 26.75H33.1357C32.7572 26.765 32.3429 26.9375 32.0429 27.185C31.7429 27.4325 31.5214 27.725 31.35 28.085C31.1857 27.725 30.9572 27.425 30.6572 27.185C30.3572 26.945 29.9429 26.75 29.5643 26.75H29.5429C29.1429 26.75 28.7857 26.8175 28.5143 27.11C28.2214 27.4025 28.1 27.815 28.1429 28.3175C28.1643 28.49 28.2643 28.7525 28.4 29H27.4143C27.0214 29 26.7 29.3375 26.7 29.75V32H27.4143V35.75C27.4143 36.1625 27.7357 36.5 28.1286 36.5H34.5572C34.95 36.5 35.2714 36.1625 35.2714 35.75V32H35.9857V29.75C35.9857 29.3375 35.6643 29 35.2714 29H35.2857ZM31.8714 28.34C31.9929 28.07 32.1714 27.8375 32.4072 27.65C32.6214 27.4775 32.9214 27.3575 33.1572 27.3425H33.2214C33.5429 27.3425 33.6929 27.425 33.7929 27.53C33.8929 27.635 34.0286 27.8225 34.0072 28.2425C33.9714 28.385 33.8286 28.7 33.65 28.9925H31.5786L31.8714 28.3325V28.34ZM28.9214 27.53C29.0143 27.4325 29.1429 27.3425 29.5714 27.3425C29.7929 27.3425 30.0857 27.47 30.3072 27.65C30.5429 27.8375 30.7214 28.0625 30.8429 28.34L31.1429 29H29.0714C28.8929 28.7075 28.75 28.3925 28.7143 28.25C28.6929 27.83 28.8286 27.6425 28.9286 27.5375L28.9214 27.53ZM31 35.7425H28.1429V32H31V35.75V35.7425ZM31 31.2425H27.4286V29.75H31V31.25V31.2425ZM34.5714 35.7425H31.7143V32H34.5714V35.75V35.7425ZM35.2857 31.2425H31.7143V29.75H35.2857V31.25V31.2425Z" fill="#B3A0B6"/>
</svg>
