<svg width="42" height="42" viewBox="0 0 42 42" fill="none" xmlns="http://www.w3.org/2000/svg">
<path d="M26.25 35C26.7141 35 27.1592 34.8156 27.4874 34.4874C27.8156 34.1593 28 33.7141 28 33.25V7H14C13.5359 7 13.0908 7.18437 12.7626 7.51256C12.4344 7.84075 12.25 8.28587 12.25 8.75V28H8.75V8.75C8.75 7.35761 9.30312 6.02226 10.2877 5.03769C11.2723 4.05312 12.6076 3.5 14 3.5H33.25C34.6424 3.5 35.9777 4.05312 36.9623 5.03769C37.9469 6.02226 38.5 7.35761 38.5 8.75V10.5H35V8.75C35 8.28587 34.8156 7.84075 34.4874 7.51256C34.1593 7.18437 33.7141 7 33.25 7C32.7859 7 32.3407 7.18437 32.0126 7.51256C31.6844 7.84075 31.5 8.28587 31.5 8.75V33.25C31.5 34.6424 30.9469 35.9777 29.9623 36.9623C28.9777 37.9469 27.6424 38.5 26.25 38.5H8.75C7.35761 38.5 6.02226 37.9469 5.03769 36.9623C4.05312 35.9777 3.5 34.6424 3.5 33.25V31.5H22.75C22.75 32.4283 23.1187 33.3185 23.7751 33.9749C24.4315 34.6313 25.3217 35 26.25 35ZM15.75 10.5H24.5V14H15.75V10.5ZM15.75 17.5H24.5V21H15.75V17.5ZM15.75 24.5H24.5V28H15.75V24.5Z" fill="#B3A0B6"/>
</svg>
