<svg width="49" height="49" viewBox="0 0 49 49" fill="none" xmlns="http://www.w3.org/2000/svg">
<path d="M24.5 44.9166C13.2239 44.9166 4.08331 35.7761 4.08331 24.5C4.08331 13.2239 13.2239 4.08331 24.5 4.08331C35.7761 4.08331 44.9166 13.2239 44.9166 24.5C44.9166 35.7761 35.7761 44.9166 24.5 44.9166ZM24.5 40.8333C28.8319 40.8333 32.9863 39.1125 36.0494 36.0494C39.1125 32.9863 40.8333 28.8319 40.8333 24.5C40.8333 20.1681 39.1125 16.0137 36.0494 12.9506C32.9863 9.88748 28.8319 8.16665 24.5 8.16665C20.1681 8.16665 16.0137 9.88748 12.9506 12.9506C9.88748 16.0137 8.16665 20.1681 8.16665 24.5C8.16665 28.8319 9.88748 32.9863 12.9506 36.0494C16.0137 39.1125 20.1681 40.8333 24.5 40.8333ZM24.5 38.7916C22.6232 38.7916 20.7647 38.422 19.0308 37.7038C17.2969 36.9855 15.7213 35.9328 14.3942 34.6057C13.0671 33.2786 12.0144 31.7031 11.2962 29.9692C10.578 28.2352 10.2083 26.3768 10.2083 24.5C10.2083 22.6232 10.578 20.7647 11.2962 19.0308C12.0144 17.2969 13.0671 15.7213 14.3942 14.3942C15.7213 13.0671 17.2969 12.0144 19.0308 11.2962C20.7647 10.578 22.6232 10.2083 24.5 10.2083C28.2904 10.2083 31.9255 11.714 34.6057 14.3942C37.2859 17.0745 38.7916 20.7096 38.7916 24.5C38.7916 28.2904 37.2859 31.9255 34.6057 34.6057C31.9255 37.2859 28.2904 38.7916 24.5 38.7916ZM24.5 34.7083C27.2074 34.7083 29.8039 33.6328 31.7184 31.7184C33.6328 29.8039 34.7083 27.2074 34.7083 24.5C34.7083 21.7926 33.6328 19.196 31.7184 17.2816C29.8039 15.3672 27.2074 14.2916 24.5 14.2916C21.7926 14.2916 19.196 15.3672 17.2816 17.2816C15.3672 19.196 14.2916 21.7926 14.2916 24.5C14.2916 27.2074 15.3672 29.8039 17.2816 31.7184C19.196 33.6328 21.7926 34.7083 24.5 34.7083ZM24.5 32.6666C22.334 32.6666 20.2568 31.8062 18.7253 30.2747C17.1937 28.7431 16.3333 26.6659 16.3333 24.5C16.3333 22.334 17.1937 20.2568 18.7253 18.7253C20.2568 17.1937 22.334 16.3333 24.5 16.3333C26.6659 16.3333 28.7431 17.1937 30.2747 18.7253C31.8062 20.2568 32.6666 22.334 32.6666 24.5C32.6666 26.6659 31.8062 28.7431 30.2747 30.2747C28.7431 31.8062 26.6659 32.6666 24.5 32.6666ZM24.5 28.5833C25.5829 28.5833 26.6216 28.1531 27.3873 27.3873C28.1531 26.6216 28.5833 25.5829 28.5833 24.5C28.5833 23.417 28.1531 22.3784 27.3873 21.6126C26.6216 20.8469 25.5829 20.4166 24.5 20.4166C23.417 20.4166 22.3784 20.8469 21.6126 21.6126C20.8469 22.3784 20.4166 23.417 20.4166 24.5C20.4166 25.5829 20.8469 26.6216 21.6126 27.3873C22.3784 28.1531 23.417 28.5833 24.5 28.5833ZM24.5 26.5416C23.9585 26.5416 23.4392 26.3265 23.0563 25.9437C22.6734 25.5608 22.4583 25.0415 22.4583 24.5C22.4583 23.9585 22.6734 23.4392 23.0563 23.0563C23.4392 22.6734 23.9585 22.4583 24.5 22.4583C25.0415 22.4583 25.5608 22.6734 25.9437 23.0563C26.3265 23.4392 26.5416 23.9585 26.5416 24.5C26.5416 25.0415 26.3265 25.5608 25.9437 25.9437C25.5608 26.3265 25.0415 26.5416 24.5 26.5416Z" fill="#B3A0B6"/>
</svg>
